<?xml version="1.0" encoding="utf-8"?>
<!-- Generator: Adobe Illustrator 21.0.2, SVG Export Plug-In . SVG Version: 6.00 Build 0)  -->
<svg version="1.1" id="Capa_1" xmlns="http://www.w3.org/2000/svg" xmlns:xlink="http://www.w3.org/1999/xlink" x="0px" y="0px"
	 width="30px" height="32px" viewBox="0 0 30 32" style="enable-background:new 0 0 30 32;" xml:space="preserve">
<style type="text/css">
	.st0{fill:#424242;}
</style>
<title>building</title>
<g id="Building">
	<path class="st0" d="M6,22H4v2h2V22z M22,14V6h-6V0h-2v6H8v4H0v22h30V14H22z M8,30H6v-4H4v4H2V12h6V30z M20,30h-3v-4h-4v4h-3V8h10
		V30z M28,30h-2v-4h-2v4h-2V16h6V30z M6,14H4v2h2V14z M6,18H4v2h2V18z M17,10h-4v2h4V10z M17,14h-4v2h4V14z M26,22h-2v2h2V22z
		 M26,18h-2v2h2V18z M17,22h-4v2h4V22z M17,18h-4v2h4V18z"/>
</g>
</svg>
