<svg id="Réteg_1" data-name="Réteg 1" xmlns="http://www.w3.org/2000/svg" width="9.99" height="20" viewBox="0 0 9.99 20">
  <defs>
    <style>
      .cls-1 {
        fill: #fff;
      }
    </style>
  </defs>
  <title>facebook</title>
  <path class="cls-1" d="M117.83,134.69v-10h-2.66v-3.34h2.49c.13,0,.16,0,.16-.17,0-.75,0-1.5,0-2.25a4.43,4.43,0,0,1,1.28-3.08,4.1,4.1,0,0,1,2.38-1.11,8.73,8.73,0,0,1,1.09-.07h2.57V118H125l-2,0h-.13c-.72.11-1,.38-1,1.12s0,1.4,0,2.1a.68.68,0,0,0,0,.09h3.32l-.4,3.33h-2.94v10Z" transform="translate(-115.17 -114.69)"/>
</svg>
