<svg id="Capa_1" data-name="Capa 1" xmlns="http://www.w3.org/2000/svg" width="20" height="13.21" viewBox="0 0 20 13.21">
  <defs>
    <style>
      .cls-1 {
        fill: #fff;
      }
    </style>
  </defs>
  <title>google-plus</title>
  <g>
    <path class="cls-1" d="M93.34,79.57c.4,3.78-1.25,6.54-4.34,7.39a6.82,6.82,0,0,1-8.09-3.67,6.52,6.52,0,0,1,2.36-8.15c2.55-1.71,6.22-1.47,8.15.58l-1.56,1.75c-3.46-1.35-5.76-.71-6.65,1.82a4,4,0,0,0,2.51,5.07,3.52,3.52,0,0,0,4.78-2.23H87.13V79.57Z" transform="translate(-80.33 -74.01)"/>
    <path class="cls-1" d="M98.51,81.15,98.41,83H96.91l-.1-1.82L95,81.06V79.55l1.83-.1.09-1.83h1.5l.09,1.83,1.83.09v1.51Z" transform="translate(-80.33 -74.01)"/>
  </g>
</svg>
