<svg id="Réteg_1" data-name="Réteg 1" xmlns="http://www.w3.org/2000/svg" width="30" height="39.83" viewBox="0 0 30 39.83">
  <defs>
    <style>
      .cls-1 {
        fill: #fcfcfc;
      }
    </style>
  </defs>
  <title>phone</title>
  <g id="_152222920" data-name=" 152222920">
    <path id="_152222248" data-name=" 152222248" class="cls-1" d="M24.22,22.55c-5.48,3.16,2.88,18.83,8.87,15.37l5.56,9.62C36.12,49,34,49.92,31,48.25c-8.14-4.65-17.1-20.16-16.84-29.42.09-3.21,2-4.47,4.46-5.9l5.56,9.62Z" transform="translate(-14.2 -9.31)"/>
    <path id="_150519168" data-name=" 150519168" class="cls-1" d="M26.52,22.29a1.24,1.24,0,0,1-1.69-.45l-5.24-9.07A1.24,1.24,0,0,1,20,11.07l2.75-1.59a1.24,1.24,0,0,1,1.7.45L29.72,19a1.24,1.24,0,0,1-.45,1.69Z" transform="translate(-14.2 -9.31)"/>
    <path id="_226148072" data-name=" 226148072" class="cls-1" d="M40.83,47.08a1.24,1.24,0,0,1-1.69-.45l-5.24-9.07a1.24,1.24,0,0,1,.45-1.69l2.75-1.59a1.24,1.24,0,0,1,1.7.45L44,43.79a1.24,1.24,0,0,1-.45,1.69Z" transform="translate(-14.2 -9.31)"/>
  </g>
</svg>
