<svg id="Capa_1" data-name="Capa 1" xmlns="http://www.w3.org/2000/svg" width="23.43" height="20" viewBox="0 0 23.43 20">
  <defs>
    <style>
      .cls-1 {
        fill: #fff;
      }
    </style>
  </defs>
  <title>twitter</title>
  <path class="cls-1" d="M194.58,71.55c.33.2.59.4.88.54,8.68,4.23,18.3-.65,20.16-10.38.39-2,.85-3.79,2.38-5.19,0,0,0-.18,0-.28l-1.61.2,1.18-2a5,5,0,0,1-4.79-.33c-2.79-1.51-6.46.71-6.84,3.89-.06.55-.07,1.1-.11,1.69-4.1-.21-7.2-2.23-10-5.1-1.29,2.45-.68,4.42.88,6.35l-1.64-.07c.06,2.18,1.31,3.49,2.89,4.61-1.55,1-1.07,1.65,3.28,4.3Z" transform="translate(-194.58 -53.62)"/>
</svg>
