<?xml version="1.0" encoding="utf-8"?>
<!-- Generator: Adobe Illustrator 21.0.2, SVG Export Plug-In . SVG Version: 6.00 Build 0)  -->
<svg version="1.1" id="Capa_1" xmlns="http://www.w3.org/2000/svg" xmlns:xlink="http://www.w3.org/1999/xlink" x="0px" y="0px"
	 width="30px" height="36.7px" viewBox="0 0 30 36.7" style="enable-background:new 0 0 30 36.7;" xml:space="preserve">
<style type="text/css">
	.st0{fill:#424242;}
</style>
<title>work-agenda</title>
<g id="Layer_5">
	<g>
		<path class="st0" d="M29.5,15.7h-4.8c-0.4,0-0.7,0.3-0.7,0.7l0,0v3.8c0,0.4,0.3,0.7,0.7,0.7l0,0h4.8c0.3,0,0.5-0.2,0.5-0.5
			c0,0,0,0,0,0v-4.2C30,15.9,29.8,15.7,29.5,15.7C29.5,15.7,29.5,15.7,29.5,15.7z"/>
		<path class="st0" d="M22.1,13.1h7c0.3,0,1,0,1-0.9V1.8c0-1-0.8-1.8-1.8-1.8c0,0-0.1,0-0.1,0H1.8C0.8,0,0,0.8,0,1.8v33.1
			c0,1,0.8,1.8,1.8,1.8h26.4c1,0,1.8-0.8,1.8-1.8V24.7c0-0.9-0.4-1.1-1-1.1h-6.9c-0.4,0-0.7-0.3-0.7-0.7l0,0v-9
			C21.3,13.5,21.6,13.1,22.1,13.1C22,13.1,22.1,13.1,22.1,13.1z M13.6,17.2c0,0.6-0.5,1.1-1.1,1.1l0,0h-6c-0.6,0-1.1-0.5-1.1-1.1v0
			v-0.7c0-0.6,0.5-1.1,1.1-1.1l0,0h6c0.6,0,1.1,0.5,1.1,1.1v0V17.2z M18.5,10.4c0,0.6-0.5,1.1-1.1,1.1l0,0H6.5
			c-0.6,0-1.1-0.5-1.1-1.1c0,0,0,0,0,0V9.6c0-0.6,0.5-1.1,1.1-1.1l0,0h10.9c0.6,0,1.1,0.5,1.1,1.1c0,0,0,0,0,0V10.4z"/>
	</g>
</g>
</svg>
