<?xml version="1.0" encoding="utf-8"?>
<!-- Generator: Adobe Illustrator 21.0.2, SVG Export Plug-In . SVG Version: 6.00 Build 0)  -->
<svg version="1.1" id="Layer_1" xmlns="http://www.w3.org/2000/svg" xmlns:xlink="http://www.w3.org/1999/xlink" x="0px" y="0px"
	 width="30px" height="27px" viewBox="0 0 30 27" style="enable-background:new 0 0 30 27;" xml:space="preserve">
<style type="text/css">
	.st0{fill:#424242;}
</style>
<title>worker</title>
<path class="st0" d="M9.4,13.9l0.1-0.1L4.4,9.3l-1.2,0.9c-0.5,0.4-0.8,0.9-0.9,1.5L0.6,25.4c0,0.8,0.6,1.5,1.4,1.5
	c0.7,0,1.4-0.5,1.5-1.2l1.6-13.2l1.1,0.9L10,26c0.3,0.7,1.1,1.1,1.9,0.8c0.7-0.3,1-1,0.9-1.7L9.4,13.9z"/>
<circle class="st0" cx="16.7" cy="4.3" r="2.5"/>
<path class="st0" d="M29.7,24.9l-5.8-7.4c-0.4-0.5-1.2-0.6-1.7-0.2c-0.1,0.1-0.1,0.1-0.2,0.2l-1.4,1.8L6.1,6.4l1.5-3.5l2.6,2.2
	L8.1,6.7l5,4.4l0.4-0.3l-0.1,0.5l3.7,3.3h0.1c0.6-0.1,1-0.7,0.8-1.3c-0.1-0.6-0.7-1-1.3-0.8c-0.1,0-0.2,0-0.2,0.1l-1.2,0.4l0.7-3.3
	c0.1-0.4-0.1-0.8-0.4-1L12,3.7l0,0L7.9,0.3C7.4-0.1,6.7-0.1,6.3,0.4C6.3,0.5,6.2,0.6,6.2,0.7L4.4,4.9L1.8,2.6
	c-0.4-0.4-1.1-0.4-1.5,0s-0.4,1.1,0,1.5c0,0,0.1,0.1,0.1,0.1L19.3,21l-3.1,3.9c-0.5,0.6-0.4,1.4,0.2,1.8c0.2,0.2,0.5,0.3,0.8,0.3
	h11.5c0.7,0,1.3-0.6,1.3-1.3C30,25.4,29.9,25.1,29.7,24.9L29.7,24.9z"/>
</svg>
